<?xml version="1.0" standalone="no"?><!DOCTYPE svg PUBLIC "-//W3C//DTD SVG 1.1//EN" "http://www.w3.org/Graphics/SVG/1.1/DTD/svg11.dtd"><svg class="icon" width="200px" height="200.00px" viewBox="0 0 1024 1024" version="1.1" xmlns="http://www.w3.org/2000/svg"><path d="M873.271602 173.497473l-729.637786 0c-46.296419 0-84.188424 35.772738-84.188424 79.529311l0 477.052047c0 43.741223 37.892005 79.547731 84.188424 79.547731l729.637786 0c46.296419 0 84.188424-35.806507 84.188424-79.547731L957.460026 253.026784C957.460026 209.269187 919.568021 173.497473 873.271602 173.497473L873.271602 173.497473zM143.633816 226.517013l729.637786 0c15.20019 0 28.063149 12.130272 28.063149 26.50977l0 79.494519L115.570667 332.521303l0-79.494519C115.570667 238.648308 128.396787 226.517013 143.633816 226.517013L143.633816 226.517013zM873.271602 756.570181l-729.637786 0c-15.237029 0-28.062126-12.130272-28.062126-26.492374L115.57169 491.543086l785.763061 0 0 238.535745C901.334751 744.43991 888.471792 756.570181 873.271602 756.570181L873.271602 756.570181zM171.66115 597.565794l56.162114 0 0 106.019639-56.162114 0L171.66115 597.565794zM283.948539 597.565794l56.126298 0 0 106.019639-56.126298 0L283.948539 597.565794zM396.200112 597.565794l56.090483 0 0 106.019639-56.090483 0L396.200112 597.565794zM396.200112 597.565794" /></svg>