<?xml version="1.0" standalone="no"?><!DOCTYPE svg PUBLIC "-//W3C//DTD SVG 1.1//EN" "http://www.w3.org/Graphics/SVG/1.1/DTD/svg11.dtd"><svg t="1529029743809" class="icon" style="" viewBox="0 0 1024 1024" version="1.1" xmlns="http://www.w3.org/2000/svg" p-id="5639" xmlns:xlink="http://www.w3.org/1999/xlink" width="200" height="200"><defs><style type="text/css"></style></defs><path d="M785.155413 785.066667v-136.533334a34.133333 34.133333 0 1 1 68.266667 0v136.533334h136.533333a34.133333 34.133333 0 1 1 0 68.266666h-136.533333v136.533334a34.133333 34.133333 0 1 1-68.266667 0v-136.533334h-136.533333a34.133333 34.133333 0 1 1 0-68.266666h136.533333z m-311.0912 83.5584L19.749547 673.314133v-0.068266a34.133333 34.133333 0 0 1 28.808533-61.917867l453.632 195.106133a34.133333 34.133333 0 1 1-28.125867 62.190934z m521.0112-399.086934L545.061547 666.487467a68.266667 68.266667 0 0 1-54.340267 0.136533L27.395413 467.421867v-0.068267a34.133333 34.133333 0 0 1 28.8768-61.917867l461.482667 198.4512 450.3552-197.2224v0.136534a34.133333 34.133333 0 0 1 26.897067 62.737066zM512.088747 377.514667l378.811733-158.173867-378.88-150.459733-379.2896 150.3232L512.088747 377.582933zM29.443413 186.641067L486.898347 5.461333a68.266667 68.266667 0 0 1 50.3808 0l456.704 181.384534a34.133333 34.133333 0 0 1 0.546133 63.214933L538.371413 440.5248a68.266667 68.266667 0 0 1-52.565333 0L28.965547 249.924267a34.133333 34.133333 0 0 1 0.546133-63.2832z" p-id="5640"></path></svg>