<?xml version="1.0" standalone="no"?><!DOCTYPE svg PUBLIC "-//W3C//DTD SVG 1.1//EN" "http://www.w3.org/Graphics/SVG/1.1/DTD/svg11.dtd"><svg class="icon" width="200px" height="200.00px" viewBox="0 0 1024 1024" version="1.1" xmlns="http://www.w3.org/2000/svg"><path d="M576.627 340.932c43.638-44.564 84.7-86.268 123.07-122.932 26.615 26.573 50.593 51.67 63.08 83.444 15.565 39.6 14.48 88.372 11.637 130.063-5.445 79.856-43.283 159.677-108.248 224.642-64.965 64.964-144.786 102.802-224.642 108.248-41.69 2.842-90.462 3.927-130.063-11.637-31.78-12.49-56.881-36.476-83.461-63.098 36.892-38.573 78.852-79.86 123.672-123.744 29.402 29.997 59.282 61.471 100.994 68.283 47.592 7.773 109.573-15.546 143.143-49.117 33.57-33.57 56.89-95.55 49.117-143.143-6.813-41.719-38.297-71.602-68.299-101.01z"  /><path d="M152.704 154.292C244.514 62.076 371.592 5 512 5c280.008 0 507 226.992 507 507 0 13.503-0.528 26.883-1.564 40.12h-60.212A452.736 452.736 0 0 0 959 512c0-246.871-200.129-447-447-447-123.84 0-235.917 50.36-316.87 131.718l59.938 59.938-212.054 49.576L92.59 94.178l60.114 60.114z m709.313 724.502C771.015 965.66 647.737 1019 512 1019 231.992 1019 5 792.008 5 512c0-13.5 0.528-26.877 1.563-40.11h60.212A452.736 452.736 0 0 0 65 512c0 246.871 200.129 447 447 447 119.168 0 227.445-46.633 307.577-122.645l-66.89-66.89 212.055-49.576-49.576 212.054-53.15-53.149z"  /></svg>