<?xml version="1.0" standalone="no"?><!DOCTYPE svg PUBLIC "-//W3C//DTD SVG 1.1//EN" "http://www.w3.org/Graphics/SVG/1.1/DTD/svg11.dtd"><svg t="1529919564763" class="icon" style="" viewBox="0 0 1024 1024" version="1.1" xmlns="http://www.w3.org/2000/svg" p-id="12255" xmlns:xlink="http://www.w3.org/1999/xlink" width="200" height="200"><defs><style type="text/css"></style></defs><path d="M477.252 413.284c0 41.334-33.82 75.152-75.152 75.152h-267.108c-41.334 0-75.152-33.82-75.152-75.152v-278.478c0-41.334 33.82-75.152 75.152-75.152h267.109c41.334 0 75.152 33.82 75.152 75.152v278.478z" p-id="12256"></path><path d="M477.252 890.090c0 41.335-33.82 75.152-75.152 75.152h-267.108c-41.334 0-75.152-33.82-75.152-75.152v-278.473c0-41.335 33.82-75.152 75.152-75.152h267.109c41.334 0 75.152 33.82 75.152 75.152v278.473z" p-id="12257"></path><path d="M965.424 413.284c0 41.334-33.82 75.152-75.152 75.152h-267.122c-41.335 0-75.152-33.82-75.152-75.152v-278.478c0-41.334 33.82-75.152 75.152-75.152h267.122c41.335 0 75.152 33.82 75.152 75.152v278.478z" p-id="12258"></path><path d="M965.426 890.090c0 41.335-33.82 75.152-75.152 75.152h-267.124c-41.335 0-75.152-33.82-75.152-75.152v-278.473c0-41.335 33.82-75.152 75.152-75.152h267.124c41.335 0 75.152 33.82 75.152 75.152v278.473z" p-id="12259"></path></svg>