<?xml version="1.0" standalone="no"?><!DOCTYPE svg PUBLIC "-//W3C//DTD SVG 1.1//EN" "http://www.w3.org/Graphics/SVG/1.1/DTD/svg11.dtd"><svg class="icon" width="200px" height="200.00px" viewBox="0 0 1024 1024" version="1.1" xmlns="http://www.w3.org/2000/svg"><path d="M417.490054 194.487412 417.490054 194.487412C469.471866 142.505599 553.756504 142.505599 605.738317 194.487412 657.72013 246.469224 657.72013 330.753862 605.738317 382.735675 553.756504 434.717488 469.471866 434.717488 417.490054 382.735675 365.508241 330.753862 365.508241 246.469224 417.490054 194.487412ZM480.232079 319.993649C497.55935 337.32092 525.66902 337.32092 542.996291 319.993649 560.323562 302.666378 560.323562 274.556708 542.996291 257.229438 525.66902 239.902167 497.55935 239.902167 480.232079 257.229438 462.904809 274.556708 462.904809 302.666378 480.232079 319.993649ZM715.559048 492.556406C602.920694 605.19476 420.307677 605.19476 307.669323 492.556406 216.950743 401.837826 199.423798 265.748864 254.866628 157.370223L260.612803 163.116399C260.612803 163.116399 260.612803 163.116399 260.612803 163.116399 277.940074 145.789128 306.027558 145.789128 323.354829 163.116399 340.6821 180.44367 340.6821 208.531154 323.354829 225.858425 322.977667 226.235587 322.467389 226.346517 322.090227 226.701493 299.549244 295.87746 315.456611 374.837457 370.433534 429.792194 448.395161 507.776006 574.83321 507.776006 652.817022 429.792194 730.778648 351.830568 730.778648 225.392519 652.817022 147.408707 597.706983 92.320853 518.636056 77.012509 449.349159 99.775351 449.171671 99.952839 449.038555 100.174699 448.861067 100.352187 431.533796 117.679458 403.446312 117.679458 386.119041 100.352187 368.79177 83.024916 368.79177 54.937432 386.119041 37.610162L380.372865 31.863986C488.751506-23.578844 624.840468-6.051899 715.559048 84.666681 828.197402 197.305035 828.197402 379.918052 715.559048 492.556406ZM525.957438 691.209906 570.329451 691.209906C594.844988 691.209906 614.701463 711.066382 614.701463 735.581919 614.701463 760.075269 594.844988 779.953931 570.329451 779.953931L525.957438 779.953931 525.957438 846.51195 703.445489 846.51195C727.961025 846.51195 747.817501 866.368425 747.817501 890.883962 747.817501 915.377313 727.961025 935.255975 703.445489 935.255975L525.957438 935.255975 525.957438 979.627987C525.957438 1004.143524 506.100963 1024 481.585426 1024 457.069889 1024 437.213413 1004.143524 437.213413 979.627987L437.213413 580.279875 525.957438 580.279875 525.957438 691.209906Z" /></svg>