<?xml version="1.0" standalone="no"?><!DOCTYPE svg PUBLIC "-//W3C//DTD SVG 1.1//EN" "http://www.w3.org/Graphics/SVG/1.1/DTD/svg11.dtd"><svg class="icon" width="200px" height="200.00px" viewBox="0 0 1024 1024" version="1.1" xmlns="http://www.w3.org/2000/svg"><path d="M368.783217 694.601399l107.412587 0-203.572428 265.974026-69.562438-49.102897zM837.306693 0q23.528472 0 40.407592 16.879121t16.879121 40.407592l0 450.10989-765.186813 0 0-450.10989q0-23.528472 16.879121-40.407592t40.407592-16.879121l650.613387 0zM129.406593 571.844156l765.186813 0 0 6.137862q0 23.528472-16.879121 40.407592t-40.407592 16.879121l-650.613387 0q-23.528472 0-40.407592-16.879121t-16.879121-40.407592l0-6.137862zM618.38961 694.601399l166.745255 208.687313-68.539461 50.125874-207.664336-258.813187 109.458541 0z" /></svg>