<?xml version="1.0" standalone="no"?><!DOCTYPE svg PUBLIC "-//W3C//DTD SVG 1.1//EN" "http://www.w3.org/Graphics/SVG/1.1/DTD/svg11.dtd"><svg class="icon" width="200px" height="200.00px" viewBox="0 0 1024 1024" version="1.1" xmlns="http://www.w3.org/2000/svg"><path d="M864 128 160 128C71.776 128 0 199.776 0 288l0 448c0 88.224 71.776 160 160 160l704 0c88.224 0 160-71.776 160-160L1024 288C1024 199.776 952.224 128 864 128zM960 736c0 52.928-43.072 96-96 96L160 832c-52.928 0-96-43.072-96-96L64 288c0-52.928 43.072-96 96-96l704 0c52.928 0 96 43.072 96 96L960 736zM384 320 160 320c-17.664 0-32 14.336-32 32s14.336 32 32 32l224 0c17.664 0 32-14.336 32-32S401.664 320 384 320zM384 480 160 480c-17.664 0-32 14.336-32 32s14.336 32 32 32l224 0c17.664 0 32-14.336 32-32S401.664 480 384 480zM384 640 160 640c-17.664 0-32 14.336-32 32s14.336 32 32 32l224 0c17.664 0 32-14.336 32-32S401.664 640 384 640zM808.416 528c34.528-29.376 56.928-72.576 56.928-121.344 0-88.224-71.776-160-160-160s-160 71.776-160 160c0 48.768 22.4 91.968 56.928 121.344-71.744 37.376-120.928 112.32-120.928 198.656 0 17.696 14.336 32 32 32 17.696 0 32-14.304 32-32 0-88.224 71.776-160 160-160s160 71.776 160 160c0 17.696 14.304 32 32 32s32-14.304 32-32C929.344 640.32 880.16 565.376 808.416 528zM705.344 502.656c-52.928 0-96-43.072-96-96 0-52.928 43.072-96 96-96s96 43.072 96 96C801.344 459.584 758.272 502.656 705.344 502.656z" /></svg>