<?xml version="1.0" standalone="no"?><!DOCTYPE svg PUBLIC "-//W3C//DTD SVG 1.1//EN" "http://www.w3.org/Graphics/SVG/1.1/DTD/svg11.dtd"><svg t="1529917455232" class="icon" style="" viewBox="0 0 1024 1024" version="1.1" xmlns="http://www.w3.org/2000/svg" p-id="4275" xmlns:xlink="http://www.w3.org/1999/xlink" width="200" height="200"><defs><style type="text/css"></style></defs><path d="M512 1024C229.248 1024 0 794.752 0 512 0 229.248 229.248 0 512 0s512 229.248 512 512C1024 794.752 794.752 1024 512 1024zM512 85.333333C276.352 85.333333 85.333333 276.352 85.333333 512c0 235.648 191.018667 426.666667 426.666667 426.666667s426.666667-191.018667 426.666667-426.666667C938.666667 276.352 747.648 85.333333 512 85.333333z" p-id="4276"></path><path d="M512 227.541333c-26.197333 0-47.402667 22.485333-47.402667 50.176l0 301.226667c0 27.690667 21.205333 50.176 47.402667 50.176s47.402667-22.485333 47.402667-50.176L559.402667 277.76C559.402667 250.026667 538.154667 227.541333 512 227.541333zM512 696.064c-26.197333 0-47.402667 22.485333-47.402667 50.176 0 27.733333 21.205333 50.261333 47.402667 50.261333s47.402667-22.485333 47.402667-50.261333C559.402667 718.592 538.154667 696.064 512 696.064z" p-id="4277"></path></svg>