<?xml version="1.0" standalone="no"?><!DOCTYPE svg PUBLIC "-//W3C//DTD SVG 1.1//EN" "http://www.w3.org/Graphics/SVG/1.1/DTD/svg11.dtd"><svg t="1529565087022" class="icon" style="" viewBox="0 0 1024 1024" version="1.1" xmlns="http://www.w3.org/2000/svg" p-id="8872" xmlns:xlink="http://www.w3.org/1999/xlink" width="200" height="200"><defs><style type="text/css"></style></defs><path d="M979.976 980.294c-15.606 15.606-40.908 15.606-56.514 0l-238.314-238.314c-68.916 56.274-156.882 90.102-252.786 90.102-220.938 0-400.044-179.106-400.044-400.044s179.106-400.038 400.044-400.038 400.038 179.106 400.038 400.038c0 43.566-7.518 85.236-20.478 124.452-0.744 4.83-2.358 9.318-4.668 13.41-1.26 3.414-2.244 6.954-3.594 10.326l-2.256-2.262c-7.272 7.608-17.472 12.402-28.824 12.402-22.068 0-39.96-17.892-39.96-39.96l-0.366-3.708c0-10.506 4.14-19.986 10.764-27.12l-3.708-3.702c7.41-26.97 11.688-55.248 11.688-84.576 0-176.388-142.992-319.38-319.38-319.38-176.388 0-319.38 142.992-319.38 319.38 0 176.394 142.992 319.386 319.38 319.386 87.444 0 166.614-35.208 224.292-92.142 0.246-0.264 0.408-0.57 0.576-0.87l57.852 0.99 137.454 137.454 0.258-0.258 127.926 127.926c15.606 15.606 15.606 40.908 0 56.508z" p-id="8873"></path></svg>