<?xml version="1.0" standalone="no"?><!DOCTYPE svg PUBLIC "-//W3C//DTD SVG 1.1//EN" "http://www.w3.org/Graphics/SVG/1.1/DTD/svg11.dtd"><svg class="icon" width="200px" height="200.00px" viewBox="0 0 1024 1024" version="1.1" xmlns="http://www.w3.org/2000/svg"><path d="M929.578038 178.562278c0-18.220641-18.220641-36.441281-36.441282-36.441282-138.476868 0-269.66548-47.373665-357.124555-131.188612-14.576512-14.576512-36.441281-14.576512-51.017793 0-87.459075 83.814947-218.647687 134.83274-357.124555 134.832741-21.864769 0-36.441281 14.576512-36.441282 36.441281v382.633452c0 123.900356 65.594306 240.512456 174.91815 309.750889l222.291815 142.120997c7.288256 3.644128 14.576512 7.288256 18.22064 7.288256s14.576512-3.644128 18.220641-7.288256l222.291815-142.120997c109.323843-69.238434 174.918149-185.850534 174.918149-309.750889V306.106762l7.288257-127.544484z m-72.882563 386.27758c0 98.391459-54.661922 193.13879-142.120996 247.800711l-204.071174 131.188612-204.071175-131.188612C218.973055 757.978648 164.311134 663.231317 164.311134 564.839858V215.003559c131.188612-7.288256 255.088968-51.017794 346.192171-127.544484C601.606507 163.985765 725.506863 207.715302 856.695475 215.003559v349.836299zM510.503305 357.124555c-36.441281 0-65.594306 29.153025-65.594307 61.950178 0 21.864769 10.932384 40.085409 29.153025 54.661922 0 3.644128-3.644128 7.288256-3.644128 10.932384v156.697509c0 21.864769 14.576512 36.441281 36.441281 36.441281s36.441281-14.576512 36.441282-36.441281v-156.697509c0-3.644128 0-7.288256-3.644129-10.932384 18.220641-10.932384 29.153025-29.153025 29.153025-54.661922 3.644128-36.441281-21.864769-61.950178-58.306049-61.950178z" /></svg>