<?xml version="1.0" standalone="no"?><!DOCTYPE svg PUBLIC "-//W3C//DTD SVG 1.1//EN" "http://www.w3.org/Graphics/SVG/1.1/DTD/svg11.dtd"><svg class="icon" width="200px" height="200.00px" viewBox="0 0 1024 1024" version="1.1" xmlns="http://www.w3.org/2000/svg"><path d="M756.473479 959.019033l-472.429773 0c-55.913451 0-101.245915-46.502104-101.245915-103.84409L182.797791 509.054925c0-52.562123 38.192857-95.550193 87.623663-102.434997l-0.255827-113.310695c0-0.970094 0.474814-1.774413 0.549515-2.728134 0.950651-127.974673 104.357789-231.471862 232.001935-231.471862 128.232546 0 232.187153 104.431467 232.187153 233.249345 0 0.23843-0.071631 0.456395-0.071631 0.676405l-2.674922 0c0 0.092098 0.075725 0.164752 0.075725 0.274246l0.329505 1.520633c0 21.530362-17.358343 38.978756-38.815027 38.978756-21.422915 0-38.778188-17.448394-38.778188-38.978756l-0.36532-1.520633c0-3.990894 1.133823-7.614421 2.269693-11.239995-6.188956-80.300884-72.208579-143.775544-153.753803-143.775544-85.244476 0-154.339134 69.205175-154.887626 154.742317l-0.512676 0c0 0.092098 0.073678 0.164752 0.073678 0.274246l0.220011 111.901603 408.459832 0c55.911404 0 101.244892 46.485731 101.244892 103.84409l0 346.120019C857.719394 912.51693 812.384883 959.019033 756.473479 959.019033zM790.233374 578.279542c0-57.360406-45.331441-103.84409-101.244892-103.84409L351.52768 474.435453c-4.466732 0-8.714476 0.786922-13.034874 1.354857-7.139607 8.366551-17.35732 13.96813-29.183669 13.96813-2.601244 0-4.907777-0.98749-7.360641-1.500167-30.721699 17.84953-51.664683 51.244104-51.664683 90.022293l0 207.689203c0 57.341986 45.330418 103.808274 101.243869 103.808274l337.460802 0c55.914474 0 101.244892-46.466288 101.244892-103.808274L790.233374 578.279542z" /></svg>