<?xml version="1.0" standalone="no"?><!DOCTYPE svg PUBLIC "-//W3C//DTD SVG 1.1//EN" "http://www.w3.org/Graphics/SVG/1.1/DTD/svg11.dtd"><svg t="1531118681142" class="icon" style="" viewBox="0 0 1024 1024" version="1.1" xmlns="http://www.w3.org/2000/svg" p-id="2794" xmlns:xlink="http://www.w3.org/1999/xlink" width="200" height="200"><defs><style type="text/css"></style></defs><path d="M953.637249 967.563844c-42.570377 67.990973-80.153938 0-80.153938 0-35.394227-181.228174-173.565507-322.196936-360.145385-322.196936-336.549234 0-362.456349 322.196936-362.456349 322.196936l0 0c-46.219266 62.882528-80.518826 0-80.518826 0 0-166.510987 111.169498-315.750564 269.652928-375.470721-81.735123-55.584749-135.373797-149.239577-135.373797-255.422259C204.520252 166.024468 342.691531 27.853189 513.216296 27.853189s308.817674 138.292909 308.817674 308.817674c0 109.709942-57.287564 205.797363-143.522984 260.530704C935.027913 693.532248 953.637249 967.563844 953.637249 967.563844L953.637249 967.563844zM741.515144 336.670864c0-126.008315-102.168904-228.177218-228.177218-228.177218s-228.177218 102.168904-228.177218 228.177218 102.168904 228.177218 228.177218 228.177218S741.515144 462.679178 741.515144 336.670864L741.515144 336.670864zM741.515144 336.670864" p-id="2795"></path></svg>